<svg xmlns="http://www.w3.org/2000/svg" width="751.119" height="669.03">
  <path
    d="m86.152 669.03-.654-.243a80.529 80.529 0 0 1-47.435-48.313 78.132 78.132 0 0 1-4.06-19.174l-.053-.623.616.11c7.353 1.32 15.073 2.049 18.513 2.334l-19.297-12.768.035-.664a15.272 15.272 0 0 1 10.261-13.698 15.534 15.534 0 0 1 16.904 4.154c1.918 2.082 3.946 4.178 5.907 6.206 6.74 6.965 13.71 14.168 18.116 22.67a48.675 48.675 0 0 1 .979 41.891l.168 18.118Z"
    fill="#f2f2f2" />
  <path
    d="m476.589 656.657-.008-.069a205.075 205.075 0 0 0-10.326-55.652l-.005-.03a11.666 11.666 0 0 1 .296-5.55 10.96 10.96 0 0 1 12.218-7.426 23.516 23.516 0 0 0 16.108-2.75 11.46 11.46 0 0 1 10.144-.671 10.622 10.622 0 0 1 6.45 7.968 163.531 163.531 0 0 0 10.328 55.705l.004.023a11.683 11.683 0 0 1-2.988 10.196 10.85 10.85 0 0 1-8.689 3.192c-5.794-.394-11.753.78-18.218 3.595a10.526 10.526 0 0 1-7.173.504 11.59 11.59 0 0 1-8.141-9.035Z"
    fill="#6c63ff" />
  <path
    d="M291.366 396.5v248.7h174.231V396.5a8.361 8.361 0 0 0-5.893-8.003 7.699 7.699 0 0 0-2.497-.388H299.78a8.398 8.398 0 0 0-8.415 8.382v.009Zm67.995 85.454c.095-10.272 8.498-18.523 18.77-18.428 10.139.093 18.335 8.29 18.428 18.428v28.857c-.048 10.272-8.415 18.56-18.687 18.51-10.203-.047-18.463-8.307-18.511-18.51v-28.857Z"
    fill="#f2f2f2" />
  <path
    d="M290.833 637.246v23.983a4.72 4.72 0 0 0 4.68 4.704H461.45a4.704 4.704 0 0 0 4.68-4.704v-23.983H290.834ZM17.277 21.8v454.092c.01 12.049 9.775 21.814 21.824 21.824h672.917c12.05-.01 21.815-9.775 21.824-21.824V21.8C733.814 9.763 724.055.015 712.018 0H39.1C27.064.015 17.305 9.763 17.277 21.8Z"
    fill="#e6e6e6" />
  <path
    d="M706.404 15.762H44.714c-6.445.014-11.662 5.243-11.663 11.688v442.84c.011 6.437 5.227 11.653 11.664 11.664h661.69c6.436-.011 11.652-5.227 11.663-11.664V27.45c0-6.445-5.218-11.674-11.664-11.688ZM539.491 330.38a11.59 11.59 0 0 1-10.369 6.356l-.069-.005a203.223 203.223 0 0 0-19.1-1.748 11.53 11.53 0 0 1 2.586 2.558 10.85 10.85 0 0 1 1.554 9.126c-1.445 5.625-1.377 11.698.211 18.568a10.526 10.526 0 0 1-.813 7.145 11.59 11.59 0 0 1-10.369 6.356l-.069-.005a205.075 205.075 0 0 0-45.725-1.218c-.06.384-.136.77-.235 1.154-1.445 5.625-1.377 11.698.211 18.568a10.526 10.526 0 0 1-.813 7.145 11.59 11.59 0 0 1-10.369 6.356l-.069-.005a205.065 205.065 0 0 0-46.955-1.106 43.722 43.722 0 0 0 1.206 11.61 10.526 10.526 0 0 1-.813 7.145 11.59 11.59 0 0 1-10.369 6.356l-.069-.005a205.076 205.076 0 0 0-56.601 0h-.03c-1.88.007-3.734-.44-5.404-1.303a10.96 10.96 0 0 1-5.072-13.369 28.337 28.337 0 0 0 1.26-4.937 205.069 205.069 0 0 0-51.754.61h-.03c-1.88.006-3.734-.44-5.404-1.304a10.96 10.96 0 0 1-5.072-13.369 23.516 23.516 0 0 0 .234-16.339 11.456 11.456 0 0 1 0-7.684 205.07 205.07 0 0 0-38.728 1.695h-.03c-1.88.007-3.734-.44-5.404-1.303a10.96 10.96 0 0 1-5.072-13.369 23.516 23.516 0 0 0 .234-16.339 11.46 11.46 0 0 1 1.19-10.096 10.622 10.622 0 0 1 9.012-4.888 165.15 165.15 0 0 0 19.87 2.245 10.999 10.999 0 0 1-4.306-12.922 23.516 23.516 0 0 0 .234-16.339 11.46 11.46 0 0 1 1.19-10.096c.085-.13.183-.244.272-.368-4.741.327-9.471.819-14.19 1.475h-.03c-1.88.007-3.734-.44-5.404-1.303a10.96 10.96 0 0 1-5.072-13.369 23.516 23.516 0 0 0 .234-16.339 11.46 11.46 0 0 1 1.19-10.096 10.622 10.622 0 0 1 9.012-4.888 164.8 164.8 0 0 0 23.914 2.408 11.156 11.156 0 0 1-1.35-10.085 23.516 23.516 0 0 0 .234-16.339 11.46 11.46 0 0 1 1.19-10.096 10.622 10.622 0 0 1 9.012-4.888 165.127 165.127 0 0 0 20.22 2.264 11.178 11.178 0 0 1-.656-8.94 23.516 23.516 0 0 0 .234-16.34 11.46 11.46 0 0 1 1.19-10.096 10.622 10.622 0 0 1 9.012-4.888 164.811 164.811 0 0 0 23.812 2.404 11.188 11.188 0 0 1-.248-8.08 23.516 23.516 0 0 0 .234-16.34 11.46 11.46 0 0 1 1.19-10.096 10.622 10.622 0 0 1 9.012-4.888 163.533 163.533 0 0 0 56.655.007h.023c1.446.298 2.938.298 4.385 0h.023a163.533 163.533 0 0 0 56.655-.007c.267 0 .532.01.795.027 3.354.229 6.401 2.032 8.216 4.86a11.46 11.46 0 0 1 1.19 10.097 23.516 23.516 0 0 0 .235 16.34c.927 2.63.839 5.512-.248 8.08a164.813 164.813 0 0 0 23.812-2.404c.267 0 .532.01.795.027 3.354.229 6.401 2.032 8.216 4.86a11.46 11.46 0 0 1 1.19 10.097 23.516 23.516 0 0 0 .235 16.34c1.038 2.94.8 6.182-.656 8.94a165.123 165.123 0 0 0 20.22-2.264c.267 0 .532.01.795.027 3.354.229 6.401 2.032 8.216 4.86a11.46 11.46 0 0 1 1.19 10.097 23.516 23.516 0 0 0 .235 16.34 11.156 11.156 0 0 1-1.364 10.105 11.52 11.52 0 0 1 2.345 2.376 10.85 10.85 0 0 1 1.553 9.126c-1.445 5.625-1.377 11.698.211 18.568a10.526 10.526 0 0 1-.813 7.145 11.755 11.755 0 0 1-1.463 2.205 164.68 164.68 0 0 0 14.009-1.842h.023a11.683 11.683 0 0 1 9.48 4.798 10.85 10.85 0 0 1 1.553 9.126c-1.445 5.625-1.377 11.698.211 18.568a10.526 10.526 0 0 1-.813 7.145Z"
    fill="#fff" />
  <path d="M684.942 76.765H65.802a2.463 2.463 0 0 1 0-4.924h619.14a2.463 2.463 0 0 1 0 4.924Z" fill="#e6e6e6" />
  <path
    d="m382.852 422.94-.069-.005a205.076 205.076 0 0 0-56.602 0h-.03c-1.88.007-3.733-.44-5.403-1.304a10.96 10.96 0 0 1-5.072-13.368 23.516 23.516 0 0 0 .234-16.34 11.46 11.46 0 0 1 1.19-10.095 10.622 10.622 0 0 1 9.012-4.888 163.532 163.532 0 0 0 56.654.007h.024a11.683 11.683 0 0 1 9.48 4.798 10.85 10.85 0 0 1 1.553 9.126c-1.445 5.625-1.377 11.698.211 18.568a10.526 10.526 0 0 1-.813 7.145 11.59 11.59 0 0 1-10.369 6.356Z"
    fill="#6c63ff" />
  <path
    d="m440.595 324.893-15.105-12.5c-11.328 5.937-28.565 29.641-28.565 29.641l-39.764 28.599a8.656 8.656 0 1 0 8.119 12.589l54.028-28.55 21.287-29.779Z"
    fill="#ffb8b8" />
  <path
    d="M466.08 277.317c8.719 7.384 9.8 20.437 2.417 29.155a20.688 20.688 0 0 1-2.737 2.683l-9.606 7.809s-23.96 34.493-36.433 38.495l-32.019 16.728-14.437-14.476 29.019-23.649s13.347-12.624 14.683-21.866c.818-5.66 10.397-21.076 19.998-32.51 7.369-8.693 20.39-9.766 29.082-2.397l.033.028Z"
    fill="#3f3d56" />
  <path fill="#ffb6b6" d="m435.037 651.672-13.647-.001-6.492-52.64 20.142.001-.003 52.64z" />
  <path
    d="m435.517 665.908-41.966-.001v-.53c0-9.022 7.313-16.335 16.334-16.335h.001l7.666-5.816 14.303 5.817h3.663v16.865Z"
    fill="#2f2e41" />
  <path fill="#ffb6b6" d="m539.021 579.842-6.463 12.019-49.438-19.208 9.539-17.74 46.362 24.929z" />
  <path
    d="m551.788 586.16-19.874 36.962-.468-.251c-7.945-4.272-10.923-14.176-6.652-22.122v-.001l-1.492-9.506 11.896-9.843 1.735-3.226 14.855 7.987ZM409.235 410.61l-12.045 96.36 6.023 32.306 108.404 47.492 6.023-19.573c-27.71-16.956-57.331-42.617-75.995-44.504 0 0-1.549-17.1 11.823-27.653 2.697-2.13 2.107-5.01 3.198-7.621.75-1.796 3.735-3.666 4.5-5.508.99-2.388-.236-4.76.76-7.186.56-1.364 2.683-1.45 3.24-2.814.949-2.329.327-5.934 1.252-8.235 1.977-4.916 3.877-9.723 5.612-14.23 5.401-14.027 9.202-25.141 8.722-27.541-1.506-7.529-71.517-11.293-71.517-11.293Z"
    fill="#2f2e41" />
  <path d="m407.16 506.691-6.3 40.694 15.903 83.046h21.079c7.573-27.904 7.963-64.579.753-95.607L407.16 506.69Z"
    fill="#2f2e41" />
  <path
    d="m420.703 292.878 9.717-16.932 10.433-8.37 19.573-3.01 5.438 4.18a139.024 139.024 0 0 1 20.378 101.359l-1.527 8.274-.97 5.252.42 6.277-3.266 9.14.449 6.692.24 3.574.24 3.587.337 5.007c.602 2.858-2.429 2.481-2 5 .753 4.424 4.128 10.98-1 11l-53-11c-13.464.056-26-16-13-29l7.538-101.03Z"
    fill="#3f3d56" />
  <circle cx="445.511" cy="234.112" r="25.737" fill="#ffb8b8" />
  <path
    d="M445.947 259.117c3.766.06 7.53-.204 11.25-.786 3.689-.75 11.94-6.796 14.24-10.435 1.709-2.703 2.802-6.924 3.418-9.99a29.565 29.565 0 0 0-5.171-23.47 9.34 9.34 0 0 0-3.773-3.22 4.607 4.607 0 0 0-.415-.14 11.524 11.524 0 0 1-5.732-3.547 9.5 9.5 0 0 0-.953-.98 14.196 14.196 0 0 0-5.923-2.974c-3.52-.943-8.616-.007-15.144 2.782-3.28 1.402-6.866.895-9.625.296a.903.903 0 0 0-.85.291 6.373 6.373 0 0 1-4.332 1.727c-.986.043-2.02 1.409-3.271 3.19-.284.404-.615.875-.854 1.162l-.032-.55-.558.614a7.734 7.734 0 0 0 3.492 12.6c.992.264 2.008.426 3.033.484.621.055 1.263.113 1.879.22a11.66 11.66 0 0 1 8.664 7.567 3.05 3.05 0 0 0 4.603 1.48 5.038 5.038 0 0 1 4.59-.836c.671.373 1.193.965 1.48 1.677a4.359 4.359 0 0 0 1.653 1.93c2.5 1.288 2.672 6.997 1.774 11.756-.865 4.587-2.576 7.905-4.16 8.069-1.219.126-1.358.213-1.446.428l-.08.193.138.18a4.98 4.98 0 0 0 2.105.282Z"
    fill="#2f2e41" />
  <path
    d="m393.852 243.94-.069-.005a205.076 205.076 0 0 0-56.602 0h-.03c-1.88.007-3.733-.44-5.403-1.304a10.96 10.96 0 0 1-5.072-13.368 23.516 23.516 0 0 0 .234-16.34 11.46 11.46 0 0 1 1.19-10.095 10.622 10.622 0 0 1 9.012-4.888 163.532 163.532 0 0 0 56.654.007h.024a11.683 11.683 0 0 1 9.48 4.798 10.85 10.85 0 0 1 1.553 9.126c-1.445 5.625-1.377 11.698.211 18.568a10.526 10.526 0 0 1-.813 7.145 11.59 11.59 0 0 1-10.369 6.356Z"
    fill="#6c63ff" />
  <path
    d="m417.92 304.556 10.649-16.463c-7.22-10.556-32.777-24.905-32.777-24.905l-33.05-36.149a8.656 8.656 0 1 0-11.553 9.534l34.668 50.321 32.062 17.662Z"
    fill="#ffb8b8" />
  <path
    d="M468.148 324.307c-6.314 9.521-19.152 12.121-28.673 5.807a20.688 20.688 0 0 1-2.984-2.405l-8.878-8.627s-37.215-19.433-42.647-31.351l-24.385-34.587 16.35-14.75 28.419 25.834s13.084 15.13 22.418 15.378c5.717.151 22.147 7.863 34.625 16.061 9.494 6.303 12.082 19.109 5.78 28.603l-.025.037Z"
    fill="#3f3d56" />
  <path
    d="m220.238 665.759-.07-.005a205.076 205.076 0 0 0-56.6 0h-.031c-1.88.007-3.734-.44-5.403-1.304a10.96 10.96 0 0 1-5.073-13.368 23.516 23.516 0 0 0 .235-16.34 11.46 11.46 0 0 1 1.19-10.095 10.622 10.622 0 0 1 9.012-4.888 163.532 163.532 0 0 0 56.654.007h.024a11.682 11.682 0 0 1 9.48 4.798 10.85 10.85 0 0 1 1.553 9.126c-1.445 5.625-1.377 11.698.21 18.568a10.526 10.526 0 0 1-.813 7.145 11.59 11.59 0 0 1-10.368 6.356Z"
    fill="#6c63ff" />
  <path
    d="m236.238 623.759-.07-.005a205.076 205.076 0 0 0-56.6 0h-.031c-1.88.007-3.734-.44-5.403-1.304a10.96 10.96 0 0 1-5.073-13.368 23.516 23.516 0 0 0 .235-16.34 11.46 11.46 0 0 1 1.19-10.095 10.622 10.622 0 0 1 9.012-4.888 163.532 163.532 0 0 0 56.654.007h.024a11.682 11.682 0 0 1 9.48 4.798 10.85 10.85 0 0 1 1.553 9.126c-1.445 5.625-1.377 11.698.21 18.568a10.526 10.526 0 0 1-.813 7.145 11.59 11.59 0 0 1-10.368 6.356Z"
    fill="#6c63ff" />
  <path
    d="m96.225 635.208.043-.054a205.077 205.077 0 0 0 31.715-46.882l.017-.025a11.665 11.665 0 0 1 4.108-3.745 10.96 10.96 0 0 1 13.914 3.29 23.516 23.516 0 0 0 13.402 9.349 11.46 11.46 0 0 1 7.696 6.643 10.622 10.622 0 0 1-1.001 10.203 163.533 163.533 0 0 0-31.75 46.92l-.014.02a11.683 11.683 0 0 1-9.286 5.164 10.85 10.85 0 0 1-8.428-3.827c-3.85-4.349-8.919-7.695-15.498-10.23a10.526 10.526 0 0 1-5.463-4.677 11.59 11.59 0 0 1 .545-12.149Z"
    fill="#6c63ff" />
  <path d="m749.934 667.284-748.75.307a1.19 1.19 0 0 1 0-2.381l748.75-.307a1.19 1.19 0 0 1 0 2.381Z" fill="#cacaca" />
  <g fill="#3f3d56">
    <ellipse cx="160.251" cy="45.263" rx="8.457" ry="8.645" />
    <ellipse cx="189.465" cy="45.263" rx="8.457" ry="8.645" />
    <ellipse cx="218.679" cy="45.263" rx="8.457" ry="8.645" />
    <path
      d="M251.99 52.096c-.26 0-.519-.1-.714-.3l-5.706-5.834a1 1 0 0 1 0-1.398l5.706-5.833a1.001 1.001 0 0 1 1.43 1.399l-5.023 5.133 5.022 5.134a1 1 0 0 1-.715 1.699ZM261.579 52.096a1 1 0 0 1-.715-1.7l5.021-5.133-5.021-5.133a1 1 0 1 1 1.43-1.399l5.705 5.833a1 1 0 0 1 0 1.398l-5.705 5.833c-.196.2-.455.3-.715.3ZM560.089 37.619h-10.61c-1.21 0-2.19.98-2.19 2.19v10.62c0 1.21.98 2.19 2.19 2.19h10.61c1.21 0 2.2-.98 2.2-2.19v-10.62c0-1.21-.99-2.19-2.2-2.19ZM534.089 37.619h-10.61c-1.21 0-2.19.98-2.19 2.19v10.62c0 1.21.98 2.19 2.19 2.19h10.61c1.21 0 2.2-.98 2.2-2.19v-10.62c0-1.21-.99-2.19-2.2-2.19ZM584.589 38.119h-10.61c-1.21 0-2.19.98-2.19 2.19v10.62c0 1.21.98 2.19 2.19 2.19h10.61c1.21 0 2.2-.98 2.2-2.19v-10.62c0-1.21-.99-2.19-2.2-2.19ZM424.667 42.159h-84.81a2.67 2.67 0 1 0 0 5.34h84.81c1.47 0 2.67-1.2 2.67-2.67s-1.2-2.67-2.67-2.67Z" />
  </g>
</svg>